<?xml version="1.0" encoding="UTF-8"?>
<svg id="Capa_2" data-name="Capa 2" xmlns="http://www.w3.org/2000/svg" viewBox="0 0 306.01 396.95">
  <defs>
    <style>
      .cls-1 {
        fill: #afebd1;
      }

      .cls-1, .cls-2, .cls-3, .cls-4, .cls-5, .cls-6 {
        stroke-width: 0px;
      }

      .cls-2 {
        fill: #ff4a4f;
      }

      .cls-3 {
        fill: #1d1d1b;
      }

      .cls-4 {
        fill: #fdfdfb;
      }

      .cls-5 {
        fill: #37cc8d;
      }

      .cls-6 {
        fill: #fff;
      }
    </style>
  </defs>
  <g id="Capa_1-2" data-name="Capa 1">
    <g>
      <polygon class="cls-1" points="11.33 143.17 117.86 74.91 226.43 139.18 216.84 257.01 118.88 315.24 8.59 252.27 11.33 143.17"/>
      <path class="cls-5" d="M232.23,258.16c-.66,2.57-1.22,4.76-1.88,7.3,8,5.3,16.17,10.73,24.35,16.13,10.31,6.8,20.63,13.59,30.96,20.37,3.14,2.06,5.88,4.44,6.45,8.44.66,4.61-.79,8.46-4.74,11-4.04,2.6-8.24,2.43-12.26-.23-19.56-12.91-39.23-25.64-58.56-38.88-4.9-3.35-8.28-3.67-13.53-.53-24.23,14.48-48.76,28.46-73.26,42.49-2.22,1.27-2.97,2.63-2.96,5.1.09,18.44.07,36.88.04,55.32-.01,6.45-3.05,10.77-8.2,11.96-7.24,1.67-13.46-3.33-13.49-11.01-.06-18.33-.13-36.65.08-54.98.04-3.61-1.22-5.39-4.25-7.13-31.45-18-62.79-36.17-94.19-54.25C2.19,266.62-.01,262.94,0,257.52.1,218.12.1,178.72,0,139.32c-.01-5.58,2.33-9.24,7.03-11.94,31.31-18.01,62.55-36.14,93.91-54.06,3.21-1.83,4.32-3.77,4.28-7.46-.21-18.32-.13-36.65-.07-54.98.02-5.37,3.91-9.99,8.74-10.73,5.44-.83,10.41,1.81,12.12,6.77.65,1.89.8,4.04.8,6.07.06,18.21.07,36.42,0,54.63,0,2.33.71,3.62,2.81,4.83,31.71,18.22,63.33,36.6,95.06,54.8,5.04,2.89,7.19,6.75,7.16,12.55-.14,29.66-.02,59.33-.14,89-.01,2.68.91,4.09,3.1,5.4,21.22,12.61,42.37,25.33,63.57,37.97,3.54,2.11,6.79,4.39,7.47,8.82.68,4.44-.6,8.23-4.39,10.82-4.1,2.81-8.43,2.61-12.59.15-8.26-4.88-16.44-9.89-24.67-14.83-9.7-5.82-19.42-11.63-29.14-17.43-.86-.52-1.77-.97-2.83-1.55ZM21.98,198.44c0,16.95.06,33.9-.07,50.84-.02,2.62.74,4.03,3.05,5.36,29.64,16.99,59.21,34.11,88.86,51.09,1.1.63,3.18.64,4.27.02,30.04-17.21,60.02-34.53,89.94-51.94,1.06-.62,1.93-2.43,1.99-3.73.22-5.37.09-10.74.09-16.12,0-28.97-.02-57.94.04-86.91,0-2.06-.57-3.34-2.42-4.4-29.91-17.2-59.78-34.49-89.72-51.66-1.03-.59-2.98-.65-3.99-.08-29.94,17.16-59.81,34.46-89.73,51.65-1.87,1.07-2.38,2.3-2.37,4.35.08,17.18.05,34.35.05,51.53Z"/>
      <path class="cls-5" d="M52.23,198.03c0,15.69.01,31.38,0,47.07,0,7.22-4.28,12-10.73,12.08-6.42.08-11.14-4.73-11.15-11.77-.06-31.61-.07-63.22,0-94.83.02-7.11,4.68-11.8,11.19-11.71,6.44.08,10.68,4.86,10.68,12.1.01,15.69,0,31.38,0,47.07Z"/>
      <path class="cls-5" d="M63.83,235.63c-.29-2.01-.85-4.02-.84-6.03.07-30.97.2-61.94.36-92.9.04-7.08,4.64-11.91,11.06-11.86,6.24.05,10.77,4.9,10.75,11.76-.1,31.08-.23,62.16-.4,93.24-.03,6-3.22,10.16-8.48,11.41-4.88,1.16-9.78-1.14-12.45-5.61Z"/>
      <g>
        <path class="cls-3" d="M131.86,265.77c-14.13,4.22-27.79,4.44-41.35-.46-10.97-3.97-20.17-10.54-27.67-19.46-1.67-1.98-3.22-4.04-4.25-6.47-3.43-8.06-.25-17.83,7.32-22.29,8.14-4.81,18.04-2.64,23.88,4.78,7.02,8.92,16.23,12.68,27.58,10.49,2.27-.44,4.5-1.16,6.78-1.43,8.27-.97,16.34,4.38,18.81,12.34,2.59,8.32-.71,16.82-8.25,21.17-1.03.59-2.15,1.02-2.84,1.34Z"/>
        <path class="cls-2" d="M68.49,251.82s14.31-12.09,32.03-3.53c17.72,8.56,16.99,20.68,16.99,20.68,0,0-29.75,2.99-49.02-17.15Z"/>
      </g>
      <g>
        <path class="cls-5" d="M13.2,120.96c0-2.32.07-4.64-.01-6.96-.19-5.37.07-10.68,1.54-15.88,4.96-17.59,23.76-33.28,47.07-29.45,12.01,1.97,21.48,8.18,28.46,18.11,5.17,7.36,7.58,15.6,7.36,24.61-.14,6.02-.25,12.03-.41,18.05-.12,4.25-.41,8.49-1.29,12.65-2,9.44-7.03,17.02-14.61,22.86-10.34,7.97-22.02,10.86-34.85,8.35-15.54-3.04-32.69-17.16-32.74-39.9-.01-4.14-.23-8.29-.36-12.43h-.16ZM86.54,109.15c-.45-8.25-3.41-15.56-8.97-21.71-5.96-6.59-13.46-10.19-22.3-10.69-10.47-.6-19.4,3.01-26.64,10.63-5.41,5.69-8.46,12.51-9.45,20.28-.18,1.41-.25,2.84-.24,4.26.03,7.12-.24,14.23-.51,21.34-.2,5.45,0,10.85,1.91,16.03,3.67,9.94,10.34,17.15,20.16,21.14,21.75,8.84,42.6-5.81,46.25-25.44.61-3.26.71-6.55.53-9.85-.19-3.49-.33-6.98-.47-11.33-.23-4.31.02-9.49-.26-14.64Z"/>
        <g>
          <ellipse class="cls-4" cx="55.94" cy="123.23" rx="39.57" ry="49.32"/>
          <ellipse class="cls-3" cx="63.22" cy="122.83" rx="30.11" ry="39.66"/>
          <ellipse class="cls-6" cx="68.06" cy="108.73" rx="20.82" ry="17.02" transform="translate(-45.58 168.23) rotate(-85.59)"/>
          <ellipse class="cls-6" cx="53.05" cy="150.04" rx="6.04" ry="6.95"/>
          <circle class="cls-6" cx="83.37" cy="130.67" r="2.22"/>
        </g>
        <g>
          <path class="cls-5" d="M19.46,116.21c.08-.25,10.49-34.28,48.22-35.26,7.04-.79,13.93-.89,16.33-1.13-4.26-4.14-9.29-7.26-15.15-9.24-11.5-3.89-22.81-3.3-33.66,2.21-21.07,10.69-26.96,34.45-20.56,51.58.33.87.69,1.72,1.08,2.56,1.44-4.65,3.75-10.72,3.75-10.72Z"/>
          <g>
            <path class="cls-5" d="M27.86,94.66c-.79,0-1.59-.18-2.34-.56-18.46-9.33-20.08-22.91-20.14-23.48-.3-2.85,1.77-5.4,4.62-5.7,2.83-.32,5.35,1.73,5.69,4.53.08.51,1.54,8.83,14.52,15.39,2.56,1.29,3.58,4.41,2.29,6.97-.91,1.81-2.74,2.85-4.63,2.85Z"/>
            <path class="cls-5" d="M50.54,84.07c4.18-1.51,8.86-2.56,14.12-2.96-.39-.39-.82-.75-1.34-1.01-10.61-5.37-11.89-12.09-11.96-12.55-.35-2.79-2.86-4.82-5.69-4.52-2.85.3-4.92,2.85-4.62,5.7.11,1.01,1.18,8.35,9.49,15.33Z"/>
          </g>
        </g>
        <path class="cls-5" d="M40.37,89.14c2.38-1.57,5.02-2.99,7.91-4.19.08-1.97-.96-3.9-2.83-4.85-10.61-5.36-11.89-12.08-11.96-12.54-.35-2.8-2.87-4.82-5.69-4.52-2.85.3-4.92,2.85-4.62,5.7.13,1.26,1.75,12.41,17.19,20.4Z"/>
      </g>
      <g>
        <path class="cls-5" d="M221.02,118.95c-.12,4.14-.35,8.28-.36,12.43-.06,22.74-17.2,36.86-32.74,39.9-12.83,2.51-24.51-.38-34.85-8.35-7.58-5.84-12.61-13.42-14.61-22.86-.88-4.16-1.17-8.4-1.29-12.65-.16-6.02-.27-12.03-.41-18.05-.21-9,2.19-17.25,7.36-24.61,6.98-9.93,16.45-16.14,28.46-18.11,23.32-3.83,42.11,11.86,47.07,29.45,1.47,5.2,1.74,10.51,1.54,15.88-.08,2.32-.01,4.64-.01,6.96h-.16ZM147.59,121.78c-.14,4.35-.28,7.84-.47,11.33-.18,3.3-.08,6.59.53,9.85,3.65,19.63,24.5,34.28,46.25,25.44,9.82-3.99,16.49-11.2,20.16-21.14,1.91-5.18,2.11-10.58,1.91-16.03-.27-7.11-.54-14.22-.51-21.34,0-1.42-.06-2.85-.24-4.26-.99-7.76-4.04-14.59-9.45-20.28-7.24-7.62-16.16-11.22-26.64-10.63-8.84.5-16.34,4.1-22.3,10.69-5.57,6.15-8.52,13.46-8.97,21.71-.28,5.16-.03,10.33-.26,14.64Z"/>
        <g>
          <ellipse class="cls-4" cx="178.44" cy="121.22" rx="39.57" ry="49.32"/>
          <ellipse class="cls-3" cx="171.17" cy="120.82" rx="30.11" ry="39.66"/>
          <ellipse class="cls-6" cx="166.33" cy="106.71" rx="17.02" ry="20.82" transform="translate(-7.71 13.1) rotate(-4.41)"/>
          <ellipse class="cls-6" cx="181.33" cy="148.03" rx="6.04" ry="6.95"/>
          <circle class="cls-6" cx="151.02" cy="128.65" r="2.22"/>
        </g>
        <g>
          <path class="cls-5" d="M214.93,114.2c-.08-.25-10.49-34.28-48.22-35.26-7.04-.79-13.93-.89-16.33-1.13,4.26-4.14,9.29-7.26,15.15-9.24,11.5-3.89,22.81-3.3,33.66,2.21,21.07,10.69,26.96,34.45,20.56,51.58-.33.87-.69,1.72-1.08,2.56-1.44-4.65-3.75-10.72-3.75-10.72Z"/>
          <g>
            <path class="cls-5" d="M206.53,92.65c.79,0,1.59-.18,2.34-.56,18.46-9.33,20.08-22.91,20.14-23.48.3-2.85-1.77-5.4-4.62-5.7-2.83-.32-5.35,1.73-5.69,4.53-.08.51-1.54,8.83-14.52,15.39-2.56,1.29-3.58,4.41-2.29,6.97.91,1.81,2.74,2.85,4.63,2.85Z"/>
            <path class="cls-5" d="M183.84,82.06c-4.18-1.51-8.86-2.56-14.12-2.96.39-.39.82-.75,1.34-1.01,10.61-5.37,11.89-12.09,11.96-12.55.35-2.79,2.86-4.82,5.69-4.52,2.85.3,4.92,2.85,4.62,5.7-.11,1.01-1.18,8.35-9.49,15.33Z"/>
          </g>
        </g>
        <path class="cls-5" d="M194.02,87.13c-2.38-1.57-5.02-2.99-7.91-4.19-.08-1.97.96-3.9,2.83-4.85,10.61-5.36,11.89-12.08,11.96-12.54.35-2.8,2.87-4.82,5.69-4.52,2.85.3,4.92,2.85,4.62,5.7-.13,1.26-1.75,12.41-17.19,20.4Z"/>
      </g>
    </g>
  </g>
</svg>