<?xml version="1.0" encoding="UTF-8"?>
<svg id="Capa_2" data-name="Capa 2" xmlns="http://www.w3.org/2000/svg" viewBox="0 0 148.71 304.34">
  <defs>
    <style>
      .cls-1 {
        fill: #2b2b2b;
        stroke-width: 0px;
      }
    </style>
  </defs>
  <g id="Capa_1-2" data-name="Capa 1">
    <path class="cls-1" d="M0,304.34V0h93.38c15.56,0,27.32,3.54,35.28,10.63s13.29,17.01,16,29.74c2.71,12.74,4.06,27.7,4.06,44.87s-2.1,29.86-6.31,39.77c-4.21,9.92-12.13,16.77-23.78,20.58,9.57,1.96,16.28,6.72,20.15,14.27,3.86,7.55,5.79,17.32,5.79,29.31v115.17h-60v-119.14c0-8.88-1.82-14.38-5.45-16.51-3.63-2.13-9.48-3.2-17.55-3.2v138.86H0ZM61.91,112.74h14.7c8.41,0,12.62-9.17,12.62-27.49,0-11.87-.92-19.65-2.77-23.34-1.85-3.69-5.3-5.53-10.38-5.53h-14.18v56.37Z"/>
  </g>
</svg>