<?xml version="1.0" encoding="UTF-8"?>
<svg id="Capa_2" data-name="Capa 2" xmlns="http://www.w3.org/2000/svg" viewBox="0 0 150.09 309.87">
  <defs>
    <style>
      .cls-1 {
        fill: #2b2b2b;
        stroke-width: 0px;
      }
    </style>
  </defs>
  <g id="Capa_1-2" data-name="Capa 1">
    <path class="cls-1" d="M73.32,309.87c-22.02,0-39.74-6.86-53.17-20.58C6.71,275.58,0,256.38,0,231.71V91.3C0,61.79,5.85,39.2,17.55,23.52,29.25,7.84,48.3,0,74.7,0c14.41,0,27.24,2.65,38.47,7.95,11.24,5.3,20.09,13.23,26.54,23.78,6.46,10.55,9.68,23.84,9.68,39.86v52.57h-60.52v-44.96c0-9.11-1.15-15.24-3.46-18.42-2.31-3.17-5.88-4.75-10.72-4.75-5.65,0-9.45,2.05-11.41,6.14-1.96,4.09-2.94,9.54-2.94,16.34v152.34c0,8.42,1.24,14.35,3.72,17.81,2.48,3.46,6.02,5.19,10.63,5.19,5.19,0,8.85-2.13,10.98-6.4,2.13-4.26,3.2-9.8,3.2-16.6v-54.82h61.21v57.58c0,26.75-6.74,46.14-20.23,58.19-13.49,12.05-32.34,18.07-56.54,18.07Z"/>
  </g>
</svg>