{
	"asset":{
		"generator":"Khronos glTF Blender I/O v3.6.28",
		"version":"2.0"
	},
	"extensionsUsed":[
		"KHR_materials_transmission",
		"KHR_materials_ior"
	],
	"scene":0,
	"scenes":[
		{
			"name":"Scene",
			"nodes":[
				11
			]
		}
	],
	"nodes":[
		{
			"mesh":0,
			"name":"Cylinder",
			"rotation":[
				0.70710688829422,
				0,
				0,
				0.7071066498756409
			],
			"scale":[
				0.020874233916401863,
				0.020874235779047012,
				0.020874233916401863
			],
			"translation":[
				0.08439382910728455,
				0,
				-0.16253662109375
			]
		},
		{
			"mesh":1,
			"name":"Cylinder.001",
			"rotation":[
				0.70710688829422,
				0,
				0,
				0.7071066498756409
			],
			"scale":[
				0.020874232053756714,
				0.008929579518735409,
				0.020874232053756714
			],
			"translation":[
				0.0004895403981208801,
				0,
				0.2276611328125
			]
		},
		{
			"mesh":2,
			"name":"Cylinder.002",
			"rotation":[
				0.70710688829422,
				0,
				0,
				0.7071066498756409
			],
			"scale":[
				0.020874233916401863,
				0.020874235779047012,
				0.020874233916401863
			],
			"translation":[
				-0.08303739875555038,
				0,
				-0.16253662109375
			]
		},
		{
			"mesh":3,
			"name":"Cylinder.003",
			"rotation":[
				0.70710688829422,
				0,
				0,
				0.7071066498756409
			],
			"scale":[
				0.020874233916401863,
				0.020874235779047012,
				0.020874233916401863
			],
			"translation":[
				0,
				0,
				-0.16253662109375
			]
		},
		{
			"mesh":4,
			"name":"Cylinder.004",
			"rotation":[
				0.70710688829422,
				0,
				0,
				0.7071066498756409
			],
			"scale":[
				0.020874232053756714,
				0.011731225997209549,
				0.020874232053756714
			],
			"translation":[
				0.0004895329475402832,
				0,
				0.280670166015625
			]
		},
		{
			"mesh":5,
			"name":"Cylinder.005",
			"rotation":[
				0,
				0.7071066498756409,
				0.70710688829422,
				5.205354014492514e-08
			],
			"scale":[
				-0.020874232053756714,
				-0.008929579518735409,
				-0.020874232053756714
			],
			"translation":[
				0.0004896000027656555,
				0,
				-0.228179931640625
			]
		},
		{
			"mesh":6,
			"name":"Cylinder.006",
			"rotation":[
				0,
				0.7071066498756409,
				0.70710688829422,
				5.953203086050962e-08
			],
			"scale":[
				-0.020874232053756714,
				-0.011731225997209549,
				-0.020874232053756714
			],
			"translation":[
				0.0004895925521850586,
				0,
				-0.281158447265625
			]
		},
		{
			"mesh":7,
			"name":"Sphere",
			"rotation":[
				0,
				-0.21643951535224915,
				-0.976296067237854,
				6.696303245234958e-08
			],
			"scale":[
				0.0689837634563446,
				0.0689837858080864,
				0.0689837858080864
			],
			"translation":[
				-5.3785741329193115e-05,
				0.0009307861328125,
				0.153411865234375
			]
		},
		{
			"mesh":8,
			"name":"Sphere.001",
			"scale":[
				0.0689837634563446,
				0.0689837709069252,
				0.0689837783575058
			],
			"translation":[
				0,
				0,
				-0.15997314453125
			]
		},
		{
			"mesh":9,
			"name":"Sphere.002",
			"scale":[
				0.038687217980623245,
				0.038687217980623245,
				0.038687221705913544
			],
			"translation":[
				0,
				0,
				0.345428466796875
			]
		},
		{
			"mesh":10,
			"name":"Sphere.003",
			"rotation":[
				0,
				0,
				-1,
				7.549790836947068e-08
			],
			"scale":[
				-0.038687217980623245,
				-0.038687217980623245,
				-0.038687221705913544
			],
			"translation":[
				0,
				0,
				-0.345947265625
			]
		},
		{
			"children":[
				0,
				1,
				2,
				3,
				4,
				5,
				6,
				7,
				8,
				9,
				10
			],
			"name":"1_Empty_Alquino",
			"scale":[
				0.001999974250793457,
				0.001999974250793457,
				0.001999974250793457
			],
			"translation":[
				0,
				0.5,
				-1
			]
		}
	],
	"animations":[
		{
			"channels":[
				{
					"sampler":0,
					"target":{
						"node":11,
						"path":"translation"
					}
				},
				{
					"sampler":1,
					"target":{
						"node":11,
						"path":"rotation"
					}
				},
				{
					"sampler":2,
					"target":{
						"node":11,
						"path":"scale"
					}
				}
			],
			"name":"Action_Alquino",
			"samplers":[
				{
					"input":36,
					"interpolation":"LINEAR",
					"output":37
				},
				{
					"input":36,
					"interpolation":"LINEAR",
					"output":38
				},
				{
					"input":36,
					"interpolation":"LINEAR",
					"output":39
				}
			]
		}
	],
	"materials":[
		{
			"doubleSided":true,
			"extensions":{
				"KHR_materials_transmission":{
					"transmissionFactor":0.3240000009536743
				},
				"KHR_materials_ior":{
					"ior":1.4500000476837158
				}
			},
			"name":"Material_alquino_1",
			"pbrMetallicRoughness":{
				"baseColorFactor":[
					0,
					0.8000000715255737,
					0.20910029113292694,
					1
				],
				"metallicFactor":0.30000001192092896,
				"roughnessFactor":0.4000000059604645
			}
		},
		{
			"doubleSided":true,
			"extensions":{
				"KHR_materials_transmission":{
					"transmissionFactor":0.25200000405311584
				},
				"KHR_materials_ior":{
					"ior":1.4500000476837158
				}
			},
			"name":"Material_Alquino_2",
			"pbrMetallicRoughness":{
				"baseColorFactor":[
					0.8000000715255737,
					0.736764132976532,
					0.07043534517288208,
					1
				],
				"metallicFactor":0.30000001192092896,
				"roughnessFactor":0.4000000059604645
			}
		}
	],
	"meshes":[
		{
			"name":"Cylinder",
			"primitives":[
				{
					"attributes":{
						"POSITION":0,
						"NORMAL":1,
						"TEXCOORD_0":2
					},
					"indices":3,
					"material":0
				}
			]
		},
		{
			"name":"Cylinder.001",
			"primitives":[
				{
					"attributes":{
						"POSITION":4,
						"NORMAL":5,
						"TEXCOORD_0":6
					},
					"indices":7,
					"material":0
				}
			]
		},
		{
			"name":"Cylinder.002",
			"primitives":[
				{
					"attributes":{
						"POSITION":8,
						"NORMAL":9,
						"TEXCOORD_0":10
					},
					"indices":3,
					"material":0
				}
			]
		},
		{
			"name":"Cylinder.003",
			"primitives":[
				{
					"attributes":{
						"POSITION":11,
						"NORMAL":12,
						"TEXCOORD_0":13
					},
					"indices":3,
					"material":0
				}
			]
		},
		{
			"name":"Cylinder.004",
			"primitives":[
				{
					"attributes":{
						"POSITION":14,
						"NORMAL":15,
						"TEXCOORD_0":16
					},
					"indices":7,
					"material":1
				}
			]
		},
		{
			"name":"Cylinder.005",
			"primitives":[
				{
					"attributes":{
						"POSITION":17,
						"NORMAL":18,
						"TEXCOORD_0":19
					},
					"indices":7,
					"material":0
				}
			]
		},
		{
			"name":"Cylinder.006",
			"primitives":[
				{
					"attributes":{
						"POSITION":20,
						"NORMAL":21,
						"TEXCOORD_0":22
					},
					"indices":7,
					"material":1
				}
			]
		},
		{
			"name":"Sphere",
			"primitives":[
				{
					"attributes":{
						"POSITION":23,
						"NORMAL":24,
						"TEXCOORD_0":25
					},
					"indices":26,
					"material":0
				}
			]
		},
		{
			"name":"Sphere.001",
			"primitives":[
				{
					"attributes":{
						"POSITION":27,
						"NORMAL":28,
						"TEXCOORD_0":29
					},
					"indices":26,
					"material":0
				}
			]
		},
		{
			"name":"Sphere.002",
			"primitives":[
				{
					"attributes":{
						"POSITION":30,
						"NORMAL":31,
						"TEXCOORD_0":32
					},
					"indices":26,
					"material":1
				}
			]
		},
		{
			"name":"Sphere.003",
			"primitives":[
				{
					"attributes":{
						"POSITION":33,
						"NORMAL":34,
						"TEXCOORD_0":35
					},
					"indices":26,
					"material":1
				}
			]
		}
	],
	"accessors":[
		{
			"bufferView":0,
			"componentType":5126,
			"count":1174,
			"max":[
				1,
				16.402137756347656,
				1
			],
			"min":[
				-1,
				-1,
				-1.0000007152557373
			],
			"type":"VEC3"
		},
		{
			"bufferView":1,
			"componentType":5126,
			"count":1174,
			"type":"VEC3"
		},
		{
			"bufferView":2,
			"componentType":5126,
			"count":1174,
			"type":"VEC2"
		},
		{
			"bufferView":3,
			"componentType":5123,
			"count":5364,
			"type":"SCALAR"
		},
		{
			"bufferView":4,
			"componentType":5126,
			"count":295,
			"max":[
				0.9999999403953552,
				4.640397548675537,
				0.9999999403953552
			],
			"min":[
				-0.9999999403953552,
				-0.9999999403953552,
				-0.9999999403953552
			],
			"type":"VEC3"
		},
		{
			"bufferView":5,
			"componentType":5126,
			"count":295,
			"type":"VEC3"
		},
		{
			"bufferView":6,
			"componentType":5126,
			"count":295,
			"type":"VEC2"
		},
		{
			"bufferView":7,
			"componentType":5123,
			"count":1332,
			"type":"SCALAR"
		},
		{
			"bufferView":8,
			"componentType":5126,
			"count":1174,
			"max":[
				1,
				16.402137756347656,
				1
			],
			"min":[
				-1,
				-1,
				-1.0000007152557373
			],
			"type":"VEC3"
		},
		{
			"bufferView":9,
			"componentType":5126,
			"count":1174,
			"type":"VEC3"
		},
		{
			"bufferView":10,
			"componentType":5126,
			"count":1174,
			"type":"VEC2"
		},
		{
			"bufferView":11,
			"componentType":5126,
			"count":1174,
			"max":[
				1,
				16.402137756347656,
				1
			],
			"min":[
				-1,
				-1,
				-1.0000007152557373
			],
			"type":"VEC3"
		},
		{
			"bufferView":12,
			"componentType":5126,
			"count":1174,
			"type":"VEC3"
		},
		{
			"bufferView":13,
			"componentType":5126,
			"count":1174,
			"type":"VEC2"
		},
		{
			"bufferView":14,
			"componentType":5126,
			"count":295,
			"max":[
				0.9999999403953552,
				4.640397548675537,
				0.9999999403953552
			],
			"min":[
				-0.9999999403953552,
				-0.9999999403953552,
				-0.9999999403953552
			],
			"type":"VEC3"
		},
		{
			"bufferView":15,
			"componentType":5126,
			"count":295,
			"type":"VEC3"
		},
		{
			"bufferView":16,
			"componentType":5126,
			"count":295,
			"type":"VEC2"
		},
		{
			"bufferView":17,
			"componentType":5126,
			"count":295,
			"max":[
				0.9999999403953552,
				4.640397548675537,
				0.9999999403953552
			],
			"min":[
				-0.9999999403953552,
				-0.9999999403953552,
				-0.9999999403953552
			],
			"type":"VEC3"
		},
		{
			"bufferView":18,
			"componentType":5126,
			"count":295,
			"type":"VEC3"
		},
		{
			"bufferView":19,
			"componentType":5126,
			"count":295,
			"type":"VEC2"
		},
		{
			"bufferView":20,
			"componentType":5126,
			"count":295,
			"max":[
				0.9999999403953552,
				4.640397548675537,
				0.9999999403953552
			],
			"min":[
				-0.9999999403953552,
				-0.9999999403953552,
				-0.9999999403953552
			],
			"type":"VEC3"
		},
		{
			"bufferView":21,
			"componentType":5126,
			"count":295,
			"type":"VEC3"
		},
		{
			"bufferView":22,
			"componentType":5126,
			"count":295,
			"type":"VEC2"
		},
		{
			"bufferView":23,
			"componentType":5126,
			"count":559,
			"max":[
				0.9999997019767761,
				1,
				0.9999993443489075
			],
			"min":[
				-0.9999990463256836,
				-1,
				-1
			],
			"type":"VEC3"
		},
		{
			"bufferView":24,
			"componentType":5126,
			"count":559,
			"type":"VEC3"
		},
		{
			"bufferView":25,
			"componentType":5126,
			"count":559,
			"type":"VEC2"
		},
		{
			"bufferView":26,
			"componentType":5123,
			"count":2880,
			"type":"SCALAR"
		},
		{
			"bufferView":27,
			"componentType":5126,
			"count":559,
			"max":[
				0.9999997019767761,
				1,
				0.9999993443489075
			],
			"min":[
				-0.9999990463256836,
				-1,
				-1
			],
			"type":"VEC3"
		},
		{
			"bufferView":28,
			"componentType":5126,
			"count":559,
			"type":"VEC3"
		},
		{
			"bufferView":29,
			"componentType":5126,
			"count":559,
			"type":"VEC2"
		},
		{
			"bufferView":30,
			"componentType":5126,
			"count":559,
			"max":[
				0.9999997019767761,
				1,
				0.9999993443489075
			],
			"min":[
				-0.9999990463256836,
				-1,
				-1
			],
			"type":"VEC3"
		},
		{
			"bufferView":31,
			"componentType":5126,
			"count":559,
			"type":"VEC3"
		},
		{
			"bufferView":32,
			"componentType":5126,
			"count":559,
			"type":"VEC2"
		},
		{
			"bufferView":33,
			"componentType":5126,
			"count":559,
			"max":[
				0.9999997019767761,
				1,
				0.9999993443489075
			],
			"min":[
				-0.9999990463256836,
				-1,
				-1
			],
			"type":"VEC3"
		},
		{
			"bufferView":34,
			"componentType":5126,
			"count":559,
			"type":"VEC3"
		},
		{
			"bufferView":35,
			"componentType":5126,
			"count":559,
			"type":"VEC2"
		},
		{
			"bufferView":36,
			"componentType":5126,
			"count":301,
			"max":[
				12.5
			],
			"min":[
				0
			],
			"type":"SCALAR"
		},
		{
			"bufferView":37,
			"componentType":5126,
			"count":301,
			"type":"VEC3"
		},
		{
			"bufferView":38,
			"componentType":5126,
			"count":301,
			"type":"VEC4"
		},
		{
			"bufferView":39,
			"componentType":5126,
			"count":301,
			"type":"VEC3"
		}
	],
	"bufferViews":[
		{
			"buffer":0,
			"byteLength":14088,
			"byteOffset":0,
			"target":34962
		},
		{
			"buffer":0,
			"byteLength":14088,
			"byteOffset":14088,
			"target":34962
		},
		{
			"buffer":0,
			"byteLength":9392,
			"byteOffset":28176,
			"target":34962
		},
		{
			"buffer":0,
			"byteLength":10728,
			"byteOffset":37568,
			"target":34963
		},
		{
			"buffer":0,
			"byteLength":3540,
			"byteOffset":48296,
			"target":34962
		},
		{
			"buffer":0,
			"byteLength":3540,
			"byteOffset":51836,
			"target":34962
		},
		{
			"buffer":0,
			"byteLength":2360,
			"byteOffset":55376,
			"target":34962
		},
		{
			"buffer":0,
			"byteLength":2664,
			"byteOffset":57736,
			"target":34963
		},
		{
			"buffer":0,
			"byteLength":14088,
			"byteOffset":60400,
			"target":34962
		},
		{
			"buffer":0,
			"byteLength":14088,
			"byteOffset":74488,
			"target":34962
		},
		{
			"buffer":0,
			"byteLength":9392,
			"byteOffset":88576,
			"target":34962
		},
		{
			"buffer":0,
			"byteLength":14088,
			"byteOffset":97968,
			"target":34962
		},
		{
			"buffer":0,
			"byteLength":14088,
			"byteOffset":112056,
			"target":34962
		},
		{
			"buffer":0,
			"byteLength":9392,
			"byteOffset":126144,
			"target":34962
		},
		{
			"buffer":0,
			"byteLength":3540,
			"byteOffset":135536,
			"target":34962
		},
		{
			"buffer":0,
			"byteLength":3540,
			"byteOffset":139076,
			"target":34962
		},
		{
			"buffer":0,
			"byteLength":2360,
			"byteOffset":142616,
			"target":34962
		},
		{
			"buffer":0,
			"byteLength":3540,
			"byteOffset":144976,
			"target":34962
		},
		{
			"buffer":0,
			"byteLength":3540,
			"byteOffset":148516,
			"target":34962
		},
		{
			"buffer":0,
			"byteLength":2360,
			"byteOffset":152056,
			"target":34962
		},
		{
			"buffer":0,
			"byteLength":3540,
			"byteOffset":154416,
			"target":34962
		},
		{
			"buffer":0,
			"byteLength":3540,
			"byteOffset":157956,
			"target":34962
		},
		{
			"buffer":0,
			"byteLength":2360,
			"byteOffset":161496,
			"target":34962
		},
		{
			"buffer":0,
			"byteLength":6708,
			"byteOffset":163856,
			"target":34962
		},
		{
			"buffer":0,
			"byteLength":6708,
			"byteOffset":170564,
			"target":34962
		},
		{
			"buffer":0,
			"byteLength":4472,
			"byteOffset":177272,
			"target":34962
		},
		{
			"buffer":0,
			"byteLength":5760,
			"byteOffset":181744,
			"target":34963
		},
		{
			"buffer":0,
			"byteLength":6708,
			"byteOffset":187504,
			"target":34962
		},
		{
			"buffer":0,
			"byteLength":6708,
			"byteOffset":194212,
			"target":34962
		},
		{
			"buffer":0,
			"byteLength":4472,
			"byteOffset":200920,
			"target":34962
		},
		{
			"buffer":0,
			"byteLength":6708,
			"byteOffset":205392,
			"target":34962
		},
		{
			"buffer":0,
			"byteLength":6708,
			"byteOffset":212100,
			"target":34962
		},
		{
			"buffer":0,
			"byteLength":4472,
			"byteOffset":218808,
			"target":34962
		},
		{
			"buffer":0,
			"byteLength":6708,
			"byteOffset":223280,
			"target":34962
		},
		{
			"buffer":0,
			"byteLength":6708,
			"byteOffset":229988,
			"target":34962
		},
		{
			"buffer":0,
			"byteLength":4472,
			"byteOffset":236696,
			"target":34962
		},
		{
			"buffer":0,
			"byteLength":1204,
			"byteOffset":241168
		},
		{
			"buffer":0,
			"byteLength":3612,
			"byteOffset":242372
		},
		{
			"buffer":0,
			"byteLength":4816,
			"byteOffset":245984
		},
		{
			"buffer":0,
			"byteLength":3612,
			"byteOffset":250800
		}
	],
	"buffers":[
		{
			"byteLength":254412,
			"uri":"data:application/octet-stream;base64,"
		}
	]
}
